Coordinates
version=1
nRows=39
nColumns=18
inDegrees=yes

Units are S.I. units (second, meters, Newtons, ...)
Angles are in degrees.

endheader
time	ground_thorax_rot_x	ground_thorax_rot_y	ground_thorax_rot_z	ground_thorax_tx	ground_thorax_ty	ground_thorax_tz	clav_prot	clav_elev	scapula_abduction	scapula_elevation	scapula_upward_rot	scapula_winging	plane_elv	shoulder_elv	axial_rot	elbow_flexion	pro_sup
      2.08000000	      0.15050036	     -4.81198190	     -9.33307762	     -0.00423131	      0.00403036	     -0.00078352	    -23.73030378	      1.63385104	      4.75950530	     -5.46092219	     42.57863745	     -3.03716221	     61.84724406	     56.74146962	    -15.68657687	      0.00000000	     34.32000000
      2.09000000	      0.82156286	     -5.17227268	     -9.57590107	     -0.00423131	      0.00403036	     -0.00078352	    -23.86163660	      2.40255032	      5.41347552	     -5.07370680	     43.92942857	     -3.48045697	     61.76569164	     57.19168874	    -15.72068013	      0.00000000	     34.32000000
      2.10000000	      0.39070975	     -5.30494237	     -9.61654841	     -0.00423131	      0.00403036	     -0.00078352	    -23.82037484	      2.22942988	      5.42491435	     -5.18001003	     43.79781185	     -3.40791464	     61.72957818	     57.99881605	    -14.88383911	      0.00000000	     34.32000000
      2.11000000	      0.08777548	     -5.39040288	     -9.47615494	     -0.00423131	      0.00403036	     -0.00078352	    -23.89416195	      2.29672379	      5.41608730	     -5.15526366	     43.96997388	     -3.45492264	     61.69543976	     58.27404416	    -14.89227255	      0.00000000	     34.32000000
      2.12000000	      0.86044711	     -5.52765648	     -9.65055019	     -0.00423131	      0.00403036	     -0.00078352	    -24.33491940	      3.26445207	      5.53871546	     -4.64470640	     45.39532925	     -3.95480571	     61.98790554	     58.45462477	    -14.96073478	      0.00000000	     34.32000000
      2.13000000	      0.56395888	     -5.56052386	     -9.50918496	     -0.00423131	      0.00403036	     -0.00078352	    -24.37929253	      3.29079368	      5.56724019	     -4.64283608	     45.53539903	     -3.98289100	     61.98828049	     58.76085557	    -14.96739354	      0.00000000	     34.32000000
      2.14000000	      0.87128180	     -5.77542438	     -9.76743083	     -0.00423131	      0.00403036	     -0.00078352	    -24.52320541	      3.56869275	      5.80914008	     -4.52371483	     46.23426472	     -4.16196432	     62.10603337	     59.38057724	    -14.86113331	      0.00000000	     34.32000000
      2.15000000	      0.61417255	     -5.79756319	     -9.59577485	     -0.00423131	      0.00403036	     -0.00078352	    -24.57528386	      3.59255894	      5.81160366	     -4.52185551	     46.35774889	     -4.18688909	     62.05969287	     59.67067775	    -14.86354971	      0.00000000	     34.32000000
      2.16000000	      0.30288109	     -5.85455637	     -9.73948773	     -0.00423131	      0.00403036	     -0.00078352	    -24.54928173	      3.30494032	      5.70021100	     -4.69605358	     46.07181719	     -4.06660021	     62.03690930	     60.75106504	    -13.79880180	      0.00000000	     34.32000000
      2.17000000	      0.94628834	     -6.07355601	     -9.81379246	     -0.00423131	      0.00403036	     -0.00078352	    -24.83274933	      4.11855847	      6.15984907	     -4.27280161	     47.50888969	     -4.49147752	     61.77740773	     60.90507870	    -14.72516428	      0.00000000	     34.32000000
      2.18000000	      0.53071565	     -6.16464505	     -9.69856131	     -0.00423131	      0.00403036	     -0.00078352	    -24.88652402	      4.17289223	      6.17860217	     -4.25156110	     47.66497240	     -4.52862879	     61.80823907	     61.21872326	    -14.73142430	      0.00000000	     34.32000000
      2.19000000	      0.75193790	     -6.22500702	     -9.88408476	     -0.00423131	      0.00403036	     -0.00078352	    -25.18916091	      4.49052238	      6.13478208	     -4.10699917	     48.36548225	     -4.71664314	     62.12209127	     61.68487064	    -14.35312943	      0.00000000	     34.32000000
      2.20000000	      0.83416519	     -6.19610371	     -9.88069479	     -0.00423131	      0.00403036	     -0.00078352	    -25.26138477	      4.70566208	      6.24682562	     -3.99027520	     48.72604820	     -4.81992399	     61.87420836	     62.05673934	    -14.31092615	      0.00000000	     34.32000000
      2.21000000	      0.67197997	     -6.12783240	     -9.95352392	     -0.00423131	      0.00403036	     -0.00078352	    -25.34506580	      4.59605974	      6.30600341	     -4.08995809	     48.94072012	     -4.82235294	     61.67361961	     62.39205768	    -13.81103827	      0.00000000	     34.32000000
      2.22000000	      0.78058554	     -6.13162397	     -9.95101115	     -0.00423131	      0.00403036	     -0.00078352	    -25.39469462	      4.86348244	      6.50716297	     -3.93985092	     49.37626960	     -4.94449425	     61.34798049	     62.79710093	    -13.85785409	      0.00000000	     34.32000000
      2.23000000	      0.75016726	     -6.20383178	     -9.97146658	     -0.00423131	      0.00403036	     -0.00078352	    -25.53356143	      5.06836924	      6.54617363	     -3.83642257	     49.78654417	     -5.05247142	     61.31768247	     63.08801013	    -13.07175009	      0.00000000	     34.32000000
      2.24000000	      0.73385621	     -6.48134696	     -9.98637901	     -0.00423131	      0.00403036	     -0.00078352	    -25.41685094	      5.21358095	      7.06175307	     -3.75846954	     50.20304183	     -5.12430144	     60.53731797	     63.79607302	    -16.28190494	      0.00000000	     34.32000000
      2.25000000	      0.37053627	     -6.38508862	    -10.10765457	     -0.00423131	      0.00403036	     -0.00078352	    -25.62107911	      4.82282934	      6.75734509	     -4.04129535	     50.14723821	     -5.03546288	     60.58883259	     64.44007041	    -15.33720848	      0.00000000	     34.32000000
      2.26000000	      0.13109431	     -6.37568514	     -9.90578972	     -0.00423131	      0.00403036	     -0.00078352	    -25.67522020	      4.83311845	      6.79280725	     -4.04915865	     50.30850265	     -5.05944917	     60.56404475	     64.70009237	    -15.33667422	      0.00000000	     34.32000000
      2.27000000	      0.36814751	     -6.50275491	    -10.21849961	     -0.00423131	      0.00403036	     -0.00078352	    -25.89162530	      5.00532766	      7.15283315	     -4.00853342	     51.25614304	     -5.21782946	     60.45751449	     65.26134555	    -15.18440551	      0.00000000	     34.32000000
      2.28000000	     -0.02163771	     -6.52837496	    -10.07336994	     -0.00423131	      0.00403036	     -0.00078352	    -25.94455328	      5.08047076	      7.18226401	     -3.97046738	     51.42770226	     -5.25852699	     60.46337416	     65.62346507	    -15.18181751	      0.00000000	     34.32000000
      2.29000000	      0.60327878	     -6.63806737	    -10.13715272	     -0.00423131	      0.00403036	     -0.00078352	    -26.24530867	      5.92829606	      7.11313101	     -3.44956975	     52.25580381	     -5.57499577	     60.59819069	     66.19406304	    -14.14316164	      0.00000000	     34.32000000
      2.30000000	      0.66605435	     -6.81274798	    -10.13834994	     -0.00423131	      0.00403036	     -0.00078352	    -26.23376753	      6.15391341	      7.38447890	     -3.31376183	     52.62678559	     -5.65916374	     60.10792741	     66.48428631	    -14.88980512	      0.00000000	     34.32000000
      2.31000000	      0.23298586	     -6.68858142	    -10.25044556	     -0.00423131	      0.00403036	     -0.00078352	    -26.30401093	      5.70890183	      7.09517288	     -3.60866645	     52.28775919	     -5.53123656	     60.07809895	     67.12516786	    -13.72411734	      0.00000000	     34.32000000
      2.32000000	      0.00206525	     -6.69698378	    -10.09206774	     -0.00423131	      0.00403036	     -0.00078352	    -26.36257848	      5.74542923	      7.09901867	     -3.59533100	     52.42804622	     -5.55885386	     60.02161728	     67.32491027	    -13.72428771	      0.00000000	     34.32000000
      2.33000000	      0.44737572	     -6.78649861	    -10.27549810	     -0.00423131	      0.00403036	     -0.00078352	    -26.71397518	      6.25926246	      7.24682304	     -3.32156589	     53.51200517	     -5.81271080	     59.85107444	     67.47660097	    -13.07288373	      0.00000000	     34.32000000
      2.34000000	      0.49537316	     -6.93130375	    -10.28430260	     -0.00423131	      0.00403036	     -0.00078352	    -26.87853564	      6.60178015	      7.22707233	     -3.11665715	     53.94673845	     -5.94591396	     59.88901427	     67.94091379	    -12.32984767	      0.00000000	     34.32000000
      2.35000000	      0.50148643	     -7.04950369	    -10.28629313	     -0.00423131	      0.00403036	     -0.00078352	    -27.08374065	      6.91356350	      7.15056837	     -2.93552474	     54.39027180	     -6.07580107	     59.95490637	     68.46811874	    -11.86484178	      0.00000000	     34.32000000
      2.36000000	      0.39154884	     -7.06888803	    -10.38130277	     -0.00423131	      0.00403036	     -0.00078352	    -27.32519118	      6.97005621	      6.99168046	     -2.92844685	     54.72905230	     -6.14697293	     59.87953839	     68.92821621	    -11.52142524	      0.00000000	     34.32000000
      2.37000000	      0.64743897	     -7.38567754	    -10.33156644	     -0.00423131	      0.00403036	     -0.00078352	    -27.26164689	      7.37339571	      7.50006091	     -2.67087759	     55.32494889	     -6.26392125	     59.33723097	     69.27308825	    -12.90217182	      0.00000000	     34.32000000
      2.38000000	      0.47081176	     -7.42419180	    -10.16615769	     -0.00423131	      0.00403036	     -0.00078352	    -27.31465878	      7.37546313	      7.48171917	     -2.67694316	     55.41563461	     -6.27798968	     59.27456189	     69.46704672	    -12.90278695	      0.00000000	     34.32000000
      2.39000000	      0.27529187	     -7.16560828	    -10.60532067	     -0.00423131	      0.00403036	     -0.00078352	    -27.68156059	      6.76300549	      7.22433599	     -3.13807135	     55.68396209	     -6.21623396	     58.97010617	     70.07532987	    -11.77528498	      0.00000000	     34.32000000
      2.40000000	      0.18172201	     -7.11274148	    -10.57015567	     -0.00423131	      0.00403036	     -0.00078352	    -27.89399736	      6.76975588	      7.10449578	     -3.15996101	     55.99071515	     -6.26989941	     58.90394487	     70.33913361	    -11.28433728	      0.00000000	     34.32000000
      2.41000000	     -0.08940737	     -7.15166538	    -10.40889932	     -0.00423131	      0.00403036	     -0.00078352	    -27.94714456	      6.82281018	      7.10222549	     -3.13153683	     56.11665526	     -6.29780511	     58.83917844	     70.60762340	    -11.28793277	      0.00000000	     34.32000000
      2.42000000	      0.24421093	     -7.17125218	    -10.55369932	     -0.00423131	      0.00403036	     -0.00078352	    -28.15829790	      7.15266360	      7.18949912	     -2.94068259	     56.76823693	     -6.44363559	     58.50744398	     71.20741613	    -11.48007471	      0.00000000	     34.32000000
      2.43000000	      0.03960886	     -7.23797001	    -10.38355146	     -0.00423131	      0.00403036	     -0.00078352	    -28.21134193	      7.17221554	      7.18429511	     -2.93449739	     56.87945510	     -6.46241212	     58.43252468	     71.43648081	    -11.48317532	      0.00000000	     34.32000000
      2.44000000	      0.07349349	     -7.18123713	    -10.68906780	     -0.00423131	      0.00403036	     -0.00078352	    -28.49088659	      6.98307688	      7.13578002	     -3.09980651	     57.34699156	     -6.49204967	     58.00133534	     71.82496561	    -10.92742654	      0.00000000	     34.32000000
      2.45000000	     -0.10891703	     -7.29280876	    -10.55995533	     -0.00423131	      0.00403036	     -0.00078352	    -28.53946139	      7.02322276	      7.10902057	     -3.07786174	     57.43007909	     -6.51358309	     57.91614634	     72.00473473	    -10.93276731	      0.00000000	     34.32000000
      2.46000000	      0.00497625	     -7.29068019	    -10.75917809	     -0.00423131	      0.00403036	     -0.00078352	    -28.79598494	      7.09322086	      7.09587493	     -3.06257610	     57.97383912	     -6.60141190	     57.50438910	     72.36134328	    -10.63609381	      0.00000000	     34.32000000
